<?xml version="1.0" encoding="utf-8"?>
<!-- Generator: Adobe Illustrator 26.3.1, SVG Export Plug-In . SVG Version: 6.00 Build 0)  -->
<svg version="1.1" id="Layer_1" xmlns="http://www.w3.org/2000/svg" xmlns:xlink="http://www.w3.org/1999/xlink" x="0px" y="0px"
	 viewBox="0 0 77 74" style="enable-background:new 0 0 77 74;" xml:space="preserve">
<style type="text/css">
	.st0{fill:#C5C7C9;}
	.st1{fill:url(#SVGID_1_);}
	.st2{opacity:0.4;fill:url(#SVGID_00000150073383716866944020000014060913285868514700_);}
	.st3{opacity:0.8;fill:url(#SVGID_00000017510604321265673200000017638701013596001937_);}
	.st4{fill:#333333;}
</style>
<g>
	<g>
		<g>
			<path class="st0" d="M18.7,0C9.5,0,2,7.5,2,16.7v39.6C2,65.5,9.5,73,18.7,73h39.6C67.5,73,75,65.5,75,56.3V16.7
				C75,7.5,67.5,0,58.3,0H18.7z"/>
			<linearGradient id="SVGID_1_" gradientUnits="userSpaceOnUse" x1="38.4999" y1="3.1764" x2="38.4999" y2="69.8236">
				<stop  offset="0" style="stop-color:#F2F2F2"/>
				<stop  offset="0.3567" style="stop-color:#EFEFEF"/>
				<stop  offset="0.6431" style="stop-color:#E5E5E5"/>
				<stop  offset="0.9043" style="stop-color:#D4D4D4"/>
				<stop  offset="1" style="stop-color:#CCCCCC"/>
			</linearGradient>
			<path class="st1" d="M18.7,3.2c-7.4,0-13.5,6.1-13.5,13.5v39.6c0,7.4,6.1,13.5,13.5,13.5h39.6c7.4,0,13.5-6.1,13.5-13.5V16.7
				c0-7.4-6.1-13.5-13.5-13.5H18.7z"/>
			
				<linearGradient id="SVGID_00000103985462931056687790000004528397955405343395_" gradientUnits="userSpaceOnUse" x1="38.4999" y1="69.8236" x2="38.4999" y2="48.1062">
				<stop  offset="0" style="stop-color:#FFFFFF"/>
				<stop  offset="1" style="stop-color:#FFFFFF;stop-opacity:0"/>
			</linearGradient>
			<path style="opacity:0.4;fill:url(#SVGID_00000103985462931056687790000004528397955405343395_);" d="M67.9,48.1v8.2
				c0,5.3-4.3,9.5-9.5,9.5H18.7c-5.3,0-9.5-4.3-9.5-9.5v-8.2h-4v8.2c0,7.4,6.1,13.5,13.5,13.5h39.6c7.4,0,13.5-6.1,13.5-13.5v-8.2
				H67.9z"/>
			
				<linearGradient id="SVGID_00000143581216400785600840000004451438024664598147_" gradientUnits="userSpaceOnUse" x1="38.4999" y1="-2867.8726" x2="38.4999" y2="-2887.697" gradientTransform="matrix(1 0 0 -1 0 -2865.25)">
				<stop  offset="0" style="stop-color:#FFFFFF"/>
				<stop  offset="1" style="stop-color:#FFFFFF;stop-opacity:0"/>
			</linearGradient>
			<path style="opacity:0.8;fill:url(#SVGID_00000143581216400785600840000004451438024664598147_);" d="M67.9,22.4v-6.3
				c0-5.3-4.3-9.5-9.5-9.5H18.7c-5.3,0-9.5,4.3-9.5,9.5v6.3h-4v-6.3c0-7.4,6.1-13.5,13.5-13.5h39.6c7.4,0,13.5,6.1,13.5,13.5v6.3
				H67.9z"/>
		</g>
	</g>
</g>
<g>
	<g>
		<path class="st4" d="M47.5,20.5c3,0.9,5.7,2.3,8,3.9l-6.6,5.3c-1.4-1.1-3.2-1.9-5-2.5c-7.5-2.3-15.8-0.1-18.5,5
			c-1.1,1.9-1.2,4.1-0.3,6.2l-9,2.3c-0.8-1.8-1.1-3.7-0.9-5.5c0.1-1.9,0.7-3.9,1.7-5.6c1.2-2.2,2.9-4.1,5.3-5.7
			c2.2-1.5,4.8-2.8,7.6-3.5c2.9-0.8,5.8-1.2,8.9-1.2C41.5,19.1,44.6,19.6,47.5,20.5z"/>
	</g>
	<g>
		<polygon class="st4" points="60.7,28.2 50.6,15 41.2,32.4 		"/>
	</g>
	<g>
		<path class="st4" d="M62,32c0.8,1.8,1.1,3.7,0.9,5.5c-0.1,1.9-0.7,3.9-1.7,5.6c-1.2,2.2-2.9,4.1-5.3,5.7c-2.2,1.5-4.8,2.8-7.6,3.5
			c-2.9,0.8-5.8,1.2-8.9,1.2c-3.1,0-6.2-0.5-9.1-1.4c-3-0.9-5.7-2.3-8-3.9l6.6-5.3c1.4,1.1,3.2,1.9,5,2.5c7.5,2.3,15.8,0.1,18.5-5
			c1.1-1.9,1.2-4.1,0.3-6.2L62,32z"/>
	</g>
	<g>
		<polygon class="st4" points="17.4,44.5 27.4,57.8 36.9,40.4 		"/>
	</g>
</g>
</svg>
