<?xml version="1.0" encoding="utf-8"?>
<!-- Generator: Adobe Illustrator 26.2.1, SVG Export Plug-In . SVG Version: 6.00 Build 0)  -->
<svg version="1.1" id="Layer_1" xmlns="http://www.w3.org/2000/svg" xmlns:xlink="http://www.w3.org/1999/xlink" x="0px" y="0px"
	 viewBox="0 0 77 74" style="enable-background:new 0 0 77 74;" xml:space="preserve">
<style type="text/css">
	.st0{fill:#FFFFFF;}
	.st1{fill:#010101;}
</style>
<ellipse class="st0" cx="39" cy="38" rx="35" ry="33"/>
<g>
	<g>
		<path class="st1" d="M50.5,62.6H29.4c-3.7,0-6.7-3-6.7-6.7V26.6c0-1,0.8-1.7,1.7-1.7h31.1c1,0,1.7,0.8,1.7,1.7v29.2
			C57.3,59.6,54.2,62.6,50.5,62.6z M26.2,28.4v27.5c0,1.8,1.5,3.2,3.2,3.2h21.1c1.8,0,3.2-1.5,3.2-3.2V28.4H26.2z"/>
	</g>
	<g>
		<path class="st1" d="M58.3,28.4H21.7c-1,0-1.7-0.8-1.7-1.7v-2.4c0-3.3,2.7-5.9,5.9-5.9h28.2c3.3,0,5.9,2.7,5.9,5.9v2.4
			C60,27.6,59.2,28.4,58.3,28.4z M23.4,24.9h33.1v-0.7c0-1.4-1.1-2.5-2.5-2.5H25.9c-1.4,0-2.5,1.1-2.5,2.5V24.9z"/>
	</g>
	<g>
		<path class="st1" d="M46.3,21.7H33.7c-1,0-1.7-0.8-1.7-1.7v-1.6c0-3,2.4-5.4,5.4-5.4h5.3c3,0,5.4,2.4,5.4,5.4V20
			C48,21,47.3,21.7,46.3,21.7z M35.4,18.3h9.2c-0.1-1-0.9-1.8-1.9-1.8h-5.3C36.3,16.5,35.5,17.3,35.4,18.3z"/>
	</g>
	<g>
		<path class="st1" d="M32.9,53.7c-1,0-1.7-0.8-1.7-1.7V36c0-1,0.8-1.7,1.7-1.7c1,0,1.7,0.8,1.7,1.7v16C34.6,53,33.9,53.7,32.9,53.7
			z"/>
	</g>
	<g>
		<path class="st1" d="M40,53.7c-1,0-1.7-0.8-1.7-1.7V36c0-1,0.8-1.7,1.7-1.7c1,0,1.7,0.8,1.7,1.7v16C41.7,53,40.9,53.7,40,53.7z"/>
	</g>
	<g>
		<path class="st1" d="M47,53.7c-1,0-1.7-0.8-1.7-1.7V36c0-1,0.8-1.7,1.7-1.7c1,0,1.7,0.8,1.7,1.7v16C48.8,53,48,53.7,47,53.7z"/>
	</g>
</g>
</svg>
