<?xml version="1.0" encoding="utf-8"?>
<!-- Generator: Adobe Illustrator 26.2.1, SVG Export Plug-In . SVG Version: 6.00 Build 0)  -->
<svg version="1.1" id="Layer_1" xmlns="http://www.w3.org/2000/svg" xmlns:xlink="http://www.w3.org/1999/xlink" x="0px" y="0px"
	 viewBox="0 0 77 74" style="enable-background:new 0 0 77 74;" xml:space="preserve">
<style type="text/css">
	.st0{fill:#FFFFFF;}
	.st1{fill:#333333;}
</style>
<ellipse class="st0" cx="39" cy="38" rx="35" ry="33"/>
<g>
	<g>
		<path class="st1" d="M48.8,18.6c3.6,1.1,6.8,2.7,9.5,4.7l-7.9,6.3c-1.7-1.3-3.8-2.3-6-3c-8.9-2.7-18.8-0.1-22.1,6
			c-1.3,2.3-1.4,4.9-0.4,7.4l-10.7,2.7c-0.9-2.2-1.3-4.4-1.1-6.6c0.1-2.3,0.8-4.6,2-6.7c1.4-2.6,3.5-4.9,6.3-6.8
			c2.6-1.8,5.7-3.3,9.1-4.2c3.4-1,6.9-1.4,10.6-1.4C41.6,16.9,45.3,17.5,48.8,18.6z"/>
	</g>
	<g>
		<polygon class="st1" points="64.5,27.8 52.5,12 41.2,32.7 		"/>
	</g>
	<g>
		<path class="st1" d="M66.1,32.3c0.9,2.2,1.3,4.4,1.1,6.6c-0.1,2.3-0.8,4.6-2,6.7c-1.4,2.6-3.5,4.9-6.3,6.8
			c-2.6,1.8-5.7,3.3-9.1,4.2c-3.4,1-6.9,1.4-10.6,1.4c-3.7,0-7.4-0.6-10.9-1.7c-3.6-1.1-6.8-2.7-9.5-4.7l7.9-6.3
			c1.7,1.3,3.8,2.3,6,3c8.9,2.7,18.8,0.1,22.1-6c1.3-2.3,1.4-4.9,0.4-7.4L66.1,32.3z"/>
	</g>
	<g>
		<polygon class="st1" points="12.8,47.2 24.8,63 36.1,42.3 		"/>
	</g>
</g>
</svg>
