<?xml version="1.0" encoding="utf-8"?>
<!-- Generator: Adobe Illustrator 26.3.1, SVG Export Plug-In . SVG Version: 6.00 Build 0)  -->
<svg version="1.1" id="Layer_1" xmlns="http://www.w3.org/2000/svg" xmlns:xlink="http://www.w3.org/1999/xlink" x="0px" y="0px"
	 viewBox="0 0 77 74" style="enable-background:new 0 0 77 74;" xml:space="preserve">
<style type="text/css">
	.st0{fill:#C5C7C9;}
	.st1{fill:url(#SVGID_1_);}
	.st2{opacity:0.4;fill:url(#SVGID_00000085242857261976312370000002753885436499262094_);}
	.st3{opacity:0.8;fill:url(#SVGID_00000012452368198658641040000014300044789384260483_);}
	.st4{fill:#050505;}
</style>
<g>
	<g>
		<path class="st0" d="M58,73.1c9.1,0,16.4-7.4,16.4-16.4V17.5C74.4,8.5,67,1.1,58,1.1H18.9C9.8,1.1,2.4,8.5,2.4,17.5v39.1
			c0,9.1,7.4,16.4,16.4,16.4H58z"/>
		
			<linearGradient id="SVGID_1_" gradientUnits="userSpaceOnUse" x1="38.4235" y1="4.2346" x2="38.4235" y2="69.9526" gradientTransform="matrix(-1 0 0 -1 76.847 74.1872)">
			<stop  offset="0" style="stop-color:#F2F2F2"/>
			<stop  offset="0.3567" style="stop-color:#EFEFEF"/>
			<stop  offset="0.6431" style="stop-color:#E5E5E5"/>
			<stop  offset="0.9043" style="stop-color:#D4D4D4"/>
			<stop  offset="1" style="stop-color:#CCCCCC"/>
		</linearGradient>
		<path class="st1" d="M58,70c7.3,0,13.3-6,13.3-13.3V17.5c0-7.3-6-13.3-13.3-13.3H18.9c-7.3,0-13.3,6-13.3,13.3v39.1
			c0,7.3,6,13.3,13.3,13.3H58z"/>
		
			<linearGradient id="SVGID_00000000224636349630752420000013735370739963696544_" gradientUnits="userSpaceOnUse" x1="38.4235" y1="69.9526" x2="38.4235" y2="48.5381" gradientTransform="matrix(-1 0 0 -1 76.847 74.1872)">
			<stop  offset="0" style="stop-color:#FFFFFF"/>
			<stop  offset="1" style="stop-color:#FFFFFF;stop-opacity:0"/>
		</linearGradient>
		<path style="opacity:0.4;fill:url(#SVGID_00000000224636349630752420000013735370739963696544_);" d="M9.5,25.6v-8.1
			c0-5.2,4.2-9.4,9.4-9.4H58c5.2,0,9.4,4.2,9.4,9.4v8.1h3.9v-8.1c0-7.3-6-13.3-13.3-13.3H18.9c-7.3,0-13.3,6-13.3,13.3v8.1H9.5z"/>
		
			<linearGradient id="SVGID_00000067914465258298135430000004984471417216491925_" gradientUnits="userSpaceOnUse" x1="38.4235" y1="-2868.9387" x2="38.4235" y2="-2888.4866" gradientTransform="matrix(-1 0 0 1 76.847 2939.4373)">
			<stop  offset="0" style="stop-color:#FFFFFF"/>
			<stop  offset="1" style="stop-color:#FFFFFF;stop-opacity:0"/>
		</linearGradient>
		<path style="opacity:0.8;fill:url(#SVGID_00000067914465258298135430000004984471417216491925_);" d="M9.5,51v6.2
			c0,5.2,4.2,9.4,9.4,9.4H58c5.2,0,9.4-4.2,9.4-9.4V51h3.9v6.2c0,7.3-6,13.3-13.3,13.3H18.9c-7.3,0-13.3-6-13.3-13.3V51H9.5z"/>
	</g>
</g>
<g>
	<g>
		<polygon class="st4" points="24,57.9 60,37.1 24,16.3 		"/>
	</g>
</g>
</svg>
