<?xml version="1.0" encoding="utf-8"?>
<!-- Generator: Adobe Illustrator 26.3.1, SVG Export Plug-In . SVG Version: 6.00 Build 0)  -->
<svg version="1.1" id="Layer_1" xmlns="http://www.w3.org/2000/svg" xmlns:xlink="http://www.w3.org/1999/xlink" x="0px" y="0px"
	 viewBox="0 0 77 74" style="enable-background:new 0 0 77 74;" xml:space="preserve">
<style type="text/css">
	.st0{fill:#C5C7C9;}
	.st1{fill:url(#SVGID_1_);}
	.st2{opacity:0.4;fill:url(#SVGID_00000025437046419125061780000004384935232571850406_);}
	.st3{opacity:0.8;fill:url(#SVGID_00000164484513263522490200000008370492307956271235_);}
	.st4{fill:#010101;}
</style>
<g>
	<g>
		<g>
			<path class="st0" d="M18.4,1C9.4,1,2,8.4,2,17.4v39.1C2,65.6,9.4,73,18.4,73h39.1C66.6,73,74,65.6,74,56.6V17.4
				C74,8.4,66.6,1,57.5,1H18.4z"/>
			<linearGradient id="SVGID_1_" gradientUnits="userSpaceOnUse" x1="37.9997" y1="4.1329" x2="37.9997" y2="69.8671">
				<stop  offset="0" style="stop-color:#F2F2F2"/>
				<stop  offset="0.3567" style="stop-color:#EFEFEF"/>
				<stop  offset="0.6431" style="stop-color:#E5E5E5"/>
				<stop  offset="0.9043" style="stop-color:#D4D4D4"/>
				<stop  offset="1" style="stop-color:#CCCCCC"/>
			</linearGradient>
			<path class="st1" d="M18.4,4.1c-7.3,0-13.3,6-13.3,13.3v39.1c0,7.3,6,13.3,13.3,13.3h39.1c7.3,0,13.3-6,13.3-13.3V17.4
				c0-7.3-6-13.3-13.3-13.3H18.4z"/>
			
				<linearGradient id="SVGID_00000094594216019124125930000000650138780122636930_" gradientUnits="userSpaceOnUse" x1="37.9997" y1="69.8671" x2="37.9997" y2="48.4472">
				<stop  offset="0" style="stop-color:#FFFFFF"/>
				<stop  offset="1" style="stop-color:#FFFFFF;stop-opacity:0"/>
			</linearGradient>
			<path style="opacity:0.4;fill:url(#SVGID_00000094594216019124125930000000650138780122636930_);" d="M66.9,48.4v8.1
				c0,5.2-4.2,9.4-9.4,9.4H18.4c-5.2,0-9.4-4.2-9.4-9.4v-8.1H5.1v8.1c0,7.3,6,13.3,13.3,13.3h39.1c7.3,0,13.3-6,13.3-13.3v-8.1H66.9
				z"/>
			
				<linearGradient id="SVGID_00000114068521516080611290000016346664815529329036_" gradientUnits="userSpaceOnUse" x1="37.9997" y1="-2868.8367" x2="37.9997" y2="-2888.3896" gradientTransform="matrix(1 0 0 -1 0 -2865.25)">
				<stop  offset="0" style="stop-color:#FFFFFF"/>
				<stop  offset="1" style="stop-color:#FFFFFF;stop-opacity:0"/>
			</linearGradient>
			<path style="opacity:0.8;fill:url(#SVGID_00000114068521516080611290000016346664815529329036_);" d="M66.9,23.1v-6.2
				c0-5.2-4.2-9.4-9.4-9.4H18.4c-5.2,0-9.4,4.2-9.4,9.4v6.2H5.1v-6.2c0-7.3,6-13.3,13.3-13.3h39.1c7.3,0,13.3,6,13.3,13.3v6.2H66.9z
				"/>
		</g>
	</g>
</g>
<g>
	<g>
		<path class="st4" d="M49.5,60.6H28.4c-3.7,0-6.7-3-6.7-6.7V24.6c0-1,0.8-1.7,1.7-1.7h31.1c1,0,1.7,0.8,1.7,1.7v29.2
			C56.3,57.6,53.2,60.6,49.5,60.6z M25.2,26.4v27.5c0,1.8,1.5,3.2,3.2,3.2h21.1c1.8,0,3.2-1.5,3.2-3.2V26.4H25.2z"/>
	</g>
	<g>
		<path class="st4" d="M57.3,26.4H20.7c-1,0-1.7-0.8-1.7-1.7v-2.4c0-3.3,2.7-5.9,5.9-5.9h28.2c3.3,0,5.9,2.7,5.9,5.9v2.4
			C59,25.6,58.2,26.4,57.3,26.4z M22.4,22.9h33.1v-0.7c0-1.4-1.1-2.5-2.5-2.5H24.9c-1.4,0-2.5,1.1-2.5,2.5V22.9z"/>
	</g>
	<g>
		<path class="st4" d="M45.3,19.7H32.7c-1,0-1.7-0.8-1.7-1.7v-1.6c0-3,2.4-5.4,5.4-5.4h5.3c3,0,5.4,2.4,5.4,5.4V18
			C47,19,46.3,19.7,45.3,19.7z M34.4,16.3h9.2c-0.1-1-0.9-1.8-1.9-1.8h-5.3C35.3,14.5,34.5,15.3,34.4,16.3z"/>
	</g>
	<g>
		<path class="st4" d="M31.9,51.7c-1,0-1.7-0.8-1.7-1.7V34c0-1,0.8-1.7,1.7-1.7c1,0,1.7,0.8,1.7,1.7v16C33.6,51,32.9,51.7,31.9,51.7
			z"/>
	</g>
	<g>
		<path class="st4" d="M39,51.7c-1,0-1.7-0.8-1.7-1.7V34c0-1,0.8-1.7,1.7-1.7c1,0,1.7,0.8,1.7,1.7v16C40.7,51,39.9,51.7,39,51.7z"/>
	</g>
	<g>
		<path class="st4" d="M46,51.7c-1,0-1.7-0.8-1.7-1.7V34c0-1,0.8-1.7,1.7-1.7c1,0,1.7,0.8,1.7,1.7v16C47.8,51,47,51.7,46,51.7z"/>
	</g>
</g>
</svg>
